<svg width="14" height="14" viewBox="0 0 14 14" fill="none" xmlns="http://www.w3.org/2000/svg">
<path d="M11.0833 2.33329H9.91667V1.74996C9.91667 1.59525 9.85522 1.44688 9.74582 1.33748C9.63642 1.22808 9.48805 1.16663 9.33334 1.16663C9.17863 1.16663 9.03026 1.22808 8.92086 1.33748C8.81146 1.44688 8.75001 1.59525 8.75001 1.74996V2.33329H5.25001V1.74996C5.25001 1.59525 5.18855 1.44688 5.07915 1.33748C4.96975 1.22808 4.82138 1.16663 4.66667 1.16663C4.51196 1.16663 4.36359 1.22808 4.25419 1.33748C4.1448 1.44688 4.08334 1.59525 4.08334 1.74996V2.33329H2.91667C2.45254 2.33329 2.00742 2.51767 1.67923 2.84586C1.35105 3.17404 1.16667 3.61916 1.16667 4.08329V11.0833C1.16667 11.5474 1.35105 11.9925 1.67923 12.3207C2.00742 12.6489 2.45254 12.8333 2.91667 12.8333H11.0833C11.5475 12.8333 11.9926 12.6489 12.3208 12.3207C12.649 11.9925 12.8333 11.5474 12.8333 11.0833V4.08329C12.8333 3.61916 12.649 3.17404 12.3208 2.84586C11.9926 2.51767 11.5475 2.33329 11.0833 2.33329ZM11.6667 11.0833C11.6667 11.238 11.6052 11.3864 11.4958 11.4958C11.3864 11.6052 11.238 11.6666 11.0833 11.6666H2.91667C2.76196 11.6666 2.61359 11.6052 2.50419 11.4958C2.3948 11.3864 2.33334 11.238 2.33334 11.0833V6.99996H11.6667V11.0833ZM11.6667 5.83329H2.33334V4.08329C2.33334 3.92858 2.3948 3.78021 2.50419 3.67081C2.61359 3.56142 2.76196 3.49996 2.91667 3.49996H4.08334V4.08329C4.08334 4.238 4.1448 4.38638 4.25419 4.49577C4.36359 4.60517 4.51196 4.66663 4.66667 4.66663C4.82138 4.66663 4.96975 4.60517 5.07915 4.49577C5.18855 4.38638 5.25001 4.238 5.25001 4.08329V3.49996H8.75001V4.08329C8.75001 4.238 8.81146 4.38638 8.92086 4.49577C9.03026 4.60517 9.17863 4.66663 9.33334 4.66663C9.48805 4.66663 9.63642 4.60517 9.74582 4.49577C9.85522 4.38638 9.91667 4.238 9.91667 4.08329V3.49996H11.0833C11.238 3.49996 11.3864 3.56142 11.4958 3.67081C11.6052 3.78021 11.6667 3.92858 11.6667 4.08329V5.83329Z" fill="#111563"/>
</svg>
